<svg xmlns="http://www.w3.org/2000/svg" viewBox="0 0 800 800"><path fill="#00D992" d="M688.65,787.13H111.35c-54.39,0-98.48-44.09-98.48-98.48V111.35c0-54.39,44.09-98.48,98.48-98.48h577.29 c54.39,0,98.48,44.09,98.48,98.48v577.29C787.13,743.04,743.04,787.13,688.65,787.13z"/><path d="M666.25,351.89c0-77.87-0.19-148.09,0.16-218.3c0.07-14.47-6.86-17.12-19.63-17.08c-117.73,0.38-235.48-1.29-353.17,0.76 c-127.92,5.28-169.97,111.9-160.44,226.04c-0.94,15.71,4.55,25.68,17.35,34.97c67.53,48.98,134.45,98.83,201.51,148.46 c48.55,35.93,48.5,35.99,96.41-0.44c48.85-37.14,48.71-36.94-2.02-72.85c-10.85-7.68-20.53-13.6-31.8-1.76 c-10.83,11.38-20.22,8.1-31.65-0.56c-51.79-39.23-104.2-77.64-156.39-116.34c-6.32-4.68-12.87-8.69-14.04-17.88 c-10.52-82.14,36.55-122.22,95.81-120.24c71.08,2.38,142.31,0.57,213.47,0.57c65.75,0,65.52,0,66.07,66.24 c0.1,11.75-5.16,25.68,6.38,34.74C616.09,315.36,638.72,331.47,666.25,351.89z M133.58,448.08c0,77.21,0.32,147.39-0.24,217.57 c-0.13,16.51,8.45,18.08,21.56,18.05c116.81-0.33,233.64,0.76,350.44-0.7c127.62-4.29,171.73-112.3,161.32-225.18 c0.92-16.6-4.73-27.05-18.57-37.02c-66.25-47.72-131.68-96.59-197.19-145.34c-51.13-38.05-50.99-38.24-102.8,0.77 c-44.42,33.45-44.09,33.02,0.79,67.38c14.04,10.75,26.03,17.52,40.41,1.83c9.16-10,17.2-3.64,25.17,2.28 c52.86,39.25,105.74,78.46,158.59,117.71c6.27,4.65,13.1,8.49,14.27,17.71c9.99,78.97-33.1,122.31-95.51,120.31 c-69.32-2.22-138.76-0.5-208.14-0.51c-71.01,0-70.86-0.01-71.66-71.11c-0.12-10.86,3.77-23.05-7.88-31.51 C182.34,484.46,160.78,468.24,133.58,448.08z"/></svg>